External Loads File
version=1
nRows=46
nColumns=13
Range=5.000000e-03-10 seconds
endheader
time 	forceRightX 	forceRightY 	forceRightZ 	pointRightX 	pointRightY 	pointRightZ 	forceLeftX 	forceLeftY 	forceLeftZ 	pointLeftX 	pointLeftY 	pointLeftZ 		
5.005000 90.911304 -3.715383 -0.000000 0.133238 0.293645 -0.144684 -306.675856 757.566037 -0.000000 0.400281 0.350205 -0.382048
5.010000 87.204415 -6.371413 -0.000000 0.132215 0.304221 -0.144820 -302.834244 785.382646 -0.000000 0.401529 0.339135 -0.381957
5.015000 82.655433 -9.447683 -0.000000 0.131772 0.314992 -0.145007 -295.482856 812.552618 -0.000000 0.402359 0.328031 -0.381746
5.020000 77.278994 -13.222728 -0.000000 0.131820 0.325909 -0.145197 -284.906265 838.728848 -0.000000 0.402408 0.316971 -0.381994
5.025000 71.029117 -17.924163 -0.000000 0.132447 0.336948 -0.145476 -270.902004 863.746030 -0.000000 0.401932 0.305895 -0.381983
5.030000 63.878664 -23.557574 -0.000000 0.133634 0.348165 -0.145609 -253.877955 887.222783 -0.000000 0.401213 0.294911 -0.382624
5.035000 55.883969 -29.946868 -0.000000 0.135289 0.359395 -0.145825 -234.189466 908.762114 -0.000000 0.399330 0.284107 -0.382050
5.040000 47.228969 -36.733492 -0.000000 0.137521 0.370580 -0.145945 -212.434612 927.840705 -0.000000 0.397193 0.273480 -0.381996
5.045000 38.191098 -43.472005 -0.000000 0.140238 0.381670 -0.146221 -188.969224 943.950276 -0.000000 0.394571 0.263125 -0.381858
5.050000 29.112659 -49.668831 -0.000000 0.143495 0.392498 -0.146460 -164.359025 956.517579 -0.000000 0.391347 0.253166 -0.381682
5.055000 20.275389 -54.889950 -0.000000 0.147136 0.403210 -0.146818 -137.876227 965.211608 -0.000000 0.387462 0.243480 -0.381533
5.060000 11.989675 -58.746872 -0.000000 0.151328 0.413583 -0.147190 -110.108341 969.551283 -0.000000 0.383075 0.234004 -0.381454
5.065000 4.537998 -61.009880 -0.000000 0.156001 0.423499 -0.147653 -82.155742 969.200765 -0.000000 0.378121 0.224951 -0.381379
5.070000 -1.939348 -61.633025 -0.000000 0.161024 0.433029 -0.148153 -54.494227 964.076453 -0.000000 0.372647 0.216365 -0.381310
5.075000 -7.558242 -60.687988 -0.000000 0.166665 0.442375 -0.148547 -26.135879 954.284990 -0.000000 0.366649 0.208140 -0.381241
5.080000 -12.408490 -58.275171 -0.000000 0.172775 0.451023 -0.148980 0.784801 939.942504 -0.000000 0.360185 0.200435 -0.381126
5.085000 -16.796897 -54.396843 -0.000000 0.178930 0.459300 -0.149580 25.699239 921.443154 -0.000000 0.353326 0.193190 -0.381023
5.090000 -21.222940 -48.827808 -0.000000 0.186450 0.466982 -0.149511 51.053375 899.107504 -0.000000 0.346042 0.186494 -0.380908
5.095000 -25.784221 -41.290855 -0.000000 0.193889 0.474255 -0.150339 73.517671 873.459625 -0.000000 0.338405 0.180313 -0.380792
5.100000 -30.692839 -31.322200 -0.000000 0.201664 0.480742 -0.150770 93.578991 844.875640 -0.000000 0.330411 0.174663 -0.380694
5.105000 -36.010110 -18.431541 -0.000000 0.209746 0.486768 -0.151217 111.731345 813.542996 -0.000000 0.322056 0.169596 -0.380623
5.110000 -41.632365 -2.287563 -0.000000 0.218217 0.492064 -0.151637 128.032680 779.562394 -0.000000 0.313373 0.165189 -0.380502
5.115000 -47.315370 17.155073 -0.000000 0.226961 0.496678 -0.152034 142.613972 742.919883 -0.000000 0.304370 0.161340 -0.380473
5.120000 -52.695559 39.546208 -0.000000 0.235905 0.500974 -0.152556 155.307316 703.555401 -0.000000 0.295164 0.158209 -0.380401
5.125000 -57.387299 64.103900 -0.000000 0.244920 0.504277 -0.153068 165.608844 661.422508 -0.000000 0.285767 0.155662 -0.380295
5.130000 -61.071013 89.740784 -0.000000 0.253983 0.506572 -0.153266 173.202208 616.420749 -0.000000 0.276291 0.153904 -0.380199
5.135000 -63.568623 115.282747 -0.000000 0.263038 0.508406 -0.153351 178.008136 568.507782 -0.000000 0.266755 0.152453 -0.380112
5.140000 -65.058321 139.660328 -0.000000 0.271929 0.509445 -0.153540 179.537683 518.070633 -0.000000 0.257235 0.152173 -0.379959
5.145000 -65.984947 162.210976 -0.000000 0.280476 0.509670 -0.153632 177.644052 465.677072 -0.000000 0.247790 0.152552 -0.379755
5.150000 -66.807533 182.812587 -0.000000 0.288839 0.509151 -0.153500 172.661246 411.855583 -0.000000 0.238488 0.153784 -0.379548
5.155000 -68.122463 201.715467 -0.000000 0.296836 0.507744 -0.153213 164.557501 357.458987 -0.000000 0.229363 0.155818 -0.379224
5.160000 -70.261422 219.551863 -0.000000 0.304729 0.505461 -0.152999 153.775179 303.420376 -0.000000 0.220482 0.158456 -0.378883
5.165000 -73.526235 237.141563 -0.000000 0.312337 0.502401 -0.152534 140.676612 250.958081 -0.000000 0.211601 0.161724 -0.378665
5.170000 -78.396253 255.347516 -0.000000 0.319738 0.498397 -0.152023 125.562434 201.575337 -0.000000 0.203182 0.165559 -0.378257
5.175000 -85.198845 275.058516 -0.000000 0.326867 0.493933 -0.151543 109.179447 156.704753 -0.000000 0.195160 0.169940 -0.378304
5.180000 -93.882577 297.110480 -0.000000 0.333700 0.488685 -0.151053 92.622272 117.454311 -0.000000 0.187394 0.174889 -0.377825
5.185000 -104.235278 322.096109 -0.000000 0.340380 0.482626 -0.150413 76.919905 84.569590 -0.000000 0.179647 0.180238 -0.377427
5.190000 -116.363349 350.109448 -0.000000 0.346851 0.475905 -0.149734 62.883744 58.431490 -0.000000 0.172041 0.186014 -0.377188
5.195000 -129.862139 380.957938 -0.000000 0.353070 0.468314 -0.149316 51.313148 38.788517 -0.000000 0.164642 0.192401 -0.377057
5.200000 -144.013579 414.154861 -0.000000 0.359539 0.460438 -0.148819 42.742370 24.931508 -0.000000 0.157366 0.199345 -0.377079
5.205000 -158.947728 448.660164 -0.000000 0.365653 0.452150 -0.148646 37.347758 15.973765 -0.000000 0.150477 0.206823 -0.376984
5.210000 -174.216585 483.581615 -0.000000 0.371407 0.443538 -0.148543 35.051640 10.852171 -0.000000 0.143869 0.214613 -0.377282
5.215000 -189.252291 518.255037 -0.000000 0.376783 0.434482 -0.148503 35.446628 8.561137 -0.000000 0.137803 0.222866 -0.377352
5.220000 -204.004642 552.142380 -0.000000 0.381842 0.425221 -0.148577 37.921639 8.314202 -0.000000 0.132392 0.231476 -0.377331
5.225000 -217.624284 585.287445 -0.000000 0.386589 0.415514 -0.148586 41.867917 9.467745 -0.000000 0.127535 0.240397 -0.377325
5.230000 -229.780396 617.716318 -0.000000 0.390938 0.405469 -0.148565 46.716294 11.513777 -0.000000 0.123238 0.249635 -0.377469
